<svg id="Icons" xmlns="http://www.w3.org/2000/svg" xmlns:xlink="http://www.w3.org/1999/xlink" viewBox="0 0 160 160"><defs><style>.cls-1{filter:url(#luminosity-noclip);}.cls-2,.cls-8{fill:none;}.cls-3{clip-path:url(#clip-path);}.cls-4{fill:#da291c;}.cls-5{fill:#606060;}.cls-6{mask:url(#mask);}.cls-7{fill:#e32213;}.cls-8{stroke:#606060;stroke-miterlimit:10;stroke-width:2px;}.cls-9{mask:url(#mask-2);}.cls-10{filter:url(#luminosity-noclip-2);}</style><clipPath id="clip-path"><rect class="cls-2" x="44.73" y="65.37" width="79.94" height="37.4" transform="translate(-34.64 84.51) rotate(-45)"/></clipPath><filter id="luminosity-noclip" x="70.39" y="70.59" width="41.62" height="46.15" filterUnits="userSpaceOnUse" color-interpolation-filters="sRGB"><feFlood flood-color="#fff" result="bg"/><feBlend in="SourceGraphic" in2="bg"/></filter><mask id="mask" x="70.39" y="70.59" width="41.62" height="46.15" maskUnits="userSpaceOnUse"><path class="cls-1" d="M110.23,85.66l-8.76-8.76a6.25,6.25,0,0,0-8.61,0,6,6,0,0,0-1.78,4.3,6.16,6.16,0,0,0,.09,1A6.15,6.15,0,0,0,86,83.79a6,6,0,0,0-1.78,4.3,6.15,6.15,0,0,0,.09,1,6.15,6.15,0,0,0-5.21,1.64A6,6,0,0,0,77.28,95a6.15,6.15,0,0,0,.09,1,6.15,6.15,0,0,0-5.21,1.64,6.1,6.1,0,0,0,0,8.61L80.93,115a6.08,6.08,0,0,0,10.38-4.3,6.16,6.16,0,0,0-.09-.91,6.17,6.17,0,0,0,.91.09,6,6,0,0,0,6-7,6.17,6.17,0,0,0,.9.09,6.07,6.07,0,0,0,6.08-6.08A6.15,6.15,0,0,0,105,96a6.17,6.17,0,0,0,.91.09,6.09,6.09,0,0,0,4.3-10.38Z"/></mask><filter id="luminosity-noclip-2" x="30.89" y="31.53" width="97.29" height="96.03" filterUnits="userSpaceOnUse" color-interpolation-filters="sRGB"><feFlood flood-color="#fff" result="bg"/><feBlend in="SourceGraphic" in2="bg"/></filter><mask id="mask-2" x="30.89" y="31.53" width="97.29" height="96.03" maskUnits="userSpaceOnUse"><g class="cls-10"><path d="M110.23,85.66l-8.76-8.76a6.25,6.25,0,0,0-8.61,0,6,6,0,0,0-1.78,4.3,6.16,6.16,0,0,0,.09,1A6.15,6.15,0,0,0,86,83.79a6,6,0,0,0-1.78,4.3,6.15,6.15,0,0,0,.09,1,6.15,6.15,0,0,0-5.21,1.64A6,6,0,0,0,77.28,95a6.15,6.15,0,0,0,.09,1,6.15,6.15,0,0,0-5.21,1.64,6.1,6.1,0,0,0,0,8.61L80.93,115a6.08,6.08,0,0,0,10.38-4.3,6.16,6.16,0,0,0-.09-.91,6.17,6.17,0,0,0,.91.09,6,6,0,0,0,6-7,6.17,6.17,0,0,0,.9.09,6.07,6.07,0,0,0,6.08-6.08A6.15,6.15,0,0,0,105,96a6.17,6.17,0,0,0,.91.09,6.09,6.09,0,0,0,4.3-10.38Z"/><path d="M100.66,62.31,88.19,49.83A14.86,14.86,0,0,0,81.47,46l-13.6-3.58h0A5.35,5.35,0,0,1,65,40.87l-9-9a1.2,1.2,0,0,0-1.11-.33c-.26.06-6.36,1.46-13.78,8.88A45.16,45.16,0,0,0,31,55.4a1.21,1.21,0,0,0,.28,1.27l7.84,7.84h0l.54.54.92.92a15.1,15.1,0,0,1,2.31,3.25L53.24,84.26,76.6,62.89a1.5,1.5,0,0,1,1.45,1.38,5.21,5.21,0,0,1,7.45.09l6.71,6.71a6.09,6.09,0,0,0,8.89-.3A6.21,6.21,0,0,0,100.66,62.31Z"/></g></mask></defs><title>Omnichannel - Cash</title><g class="cls-3"><path class="cls-4" d="M43.21,87.1a12,12,0,1,1-12,12,12,12,0,0,1,12-12m0-2.24A14.24,14.24,0,1,0,57.45,99.1,14.26,14.26,0,0,0,43.21,84.86Z"/><path class="cls-4" d="M69.65,113.55a12,12,0,1,1-12,12,12,12,0,0,1,12-12m0-2.24a14.24,14.24,0,1,0,14.24,14.24,14.26,14.26,0,0,0-14.24-14.24Z"/><path class="cls-4" d="M126.18,57a12,12,0,1,1-12,12,12,12,0,0,1,12-12m0-2.24A14.24,14.24,0,1,0,140.42,69,14.26,14.26,0,0,0,126.18,54.8Z"/><path class="cls-4" d="M99.74,30.58a12,12,0,1,1-12,12,12,12,0,0,1,12-12m0-2.24A14.24,14.24,0,1,0,114,42.58,14.26,14.26,0,0,0,99.74,28.34Z"/></g><path class="cls-5" d="M54.94,33.62l8.64,8.63a7.34,7.34,0,0,0,3.81,2.08L81,47.91a12.86,12.86,0,0,1,5.82,3.34L99.25,63.72a4.21,4.21,0,0,1,.35,5.73,4.09,4.09,0,0,1-6,.21l-6.71-6.71a7.36,7.36,0,0,0-5.22-2.2,7.11,7.11,0,0,0-5.05,2.11L53.34,86.15,44.63,68.29A17.13,17.13,0,0,0,42,64.61l0,0,0,0L41,63.63l-.39-.39,0-.07L40.45,63,33,55.61a44.35,44.35,0,0,1,9.52-13.76c5.92-5.92,11-7.79,12.39-8.23m.24-2.1-.26,0c-.26.06-6.36,1.46-13.78,8.88A45.16,45.16,0,0,0,31,55.4a1.21,1.21,0,0,0,.28,1.27l7.84,7.84h0l.54.54.92.92a15.1,15.1,0,0,1,2.31,3.25L52,88a1.21,1.21,0,0,0,.89.66l.2,0a1.48,1.48,0,0,0,.94-.41l24-24a5.11,5.11,0,0,1,3.64-1.52,5.39,5.39,0,0,1,3.81,1.61l6.71,6.71a6.09,6.09,0,0,0,8.89-.3,6.21,6.21,0,0,0-.44-8.46L88.19,49.83A14.86,14.86,0,0,0,81.47,46l-13.6-3.58h0A5.35,5.35,0,0,1,65,40.87l-9-9a1.2,1.2,0,0,0-.85-.35Z"/><g class="cls-6"><path class="cls-7" d="M85.08,72.59A11.94,11.94,0,1,1,73.14,84.52,12,12,0,0,1,85.08,72.59m0-2A13.94,13.94,0,1,0,99,84.52,13.94,13.94,0,0,0,85.08,70.59Z"/></g><path class="cls-7" d="M84.37,83.73c-1.81,1.76-3.53,1.17-4.08.6-.91-.93-.6-2.78.68-4s3.14-1.52,4-.58a1,1,0,0,0,1.42-1.38c-1.48-1.52-4-1.51-6.05-.11l-.89-.91a1,1,0,0,0-1.42,1.38l.88.91c-1.5,2-1.59,4.56-.09,6.1a4.64,4.64,0,0,0,5.86.26A5.88,5.88,0,0,1,89.6,82.2,5.08,5.08,0,0,0,84.37,83.73Z"/><path class="cls-5" d="M68,43.63C56.48,48.39,48.58,57,43.21,68.25l-5.06-6.41L32,55.94l6.56-10.69L46.84,37,55,32.94l7.56,6.38Z"/><path class="cls-5" d="M97.16,77.17A4.09,4.09,0,0,1,100,78.31l8.76,8.76a4.08,4.08,0,0,1-2.89,7,4.71,4.71,0,0,1-.61-.07l-2.67-.39.4,2.67a4.73,4.73,0,0,1,.07.61A4.07,4.07,0,0,1,99,100.94a4.69,4.69,0,0,1-.61-.07l-2.67-.39.4,2.67a4,4,0,0,1-4,4.69,4.74,4.74,0,0,1-.61-.07l-2.66-.39.39,2.66a4.81,4.81,0,0,1,.07.62,4.09,4.09,0,0,1-7,2.89l-8.76-8.76a4,4,0,0,1,2.87-6.89,4.64,4.64,0,0,1,.65,0l2.68.38-.42-2.67a4.34,4.34,0,0,1-.07-.65,3.94,3.94,0,0,1,4.06-4A4.64,4.64,0,0,1,84,91l2.67.38-.42-2.67a4.37,4.37,0,0,1-.07-.65,3.94,3.94,0,0,1,4.06-4,4.65,4.65,0,0,1,.65,0l2.67.38-.42-2.67a4.53,4.53,0,0,1-.07-.65,4,4,0,0,1,4.08-4m0-2a6,6,0,0,0-6.08,6,6.19,6.19,0,0,0,.09,1,6.64,6.64,0,0,0-.93-.07,5.94,5.94,0,0,0-6.06,6,6.17,6.17,0,0,0,.09,1,6.63,6.63,0,0,0-.93-.07,5.94,5.94,0,0,0-6.06,6,6.12,6.12,0,0,0,.09,1,6.64,6.64,0,0,0-.93-.07,6,6,0,0,0-4.28,10.31L80.93,115a6.08,6.08,0,0,0,10.38-4.3,6.21,6.21,0,0,0-.09-.91,6.17,6.17,0,0,0,.91.09,6,6,0,0,0,6-7,6.17,6.17,0,0,0,.9.09,6.07,6.07,0,0,0,6.08-6.08A6.13,6.13,0,0,0,105,96a6.17,6.17,0,0,0,.91.09,6.09,6.09,0,0,0,4.3-10.38l-8.76-8.76a6.08,6.08,0,0,0-4.3-1.72Z"/><line class="cls-8" x1="77.38" y1="95.95" x2="91.22" y2="109.75"/><line class="cls-8" x1="84.27" y1="89.05" x2="98.12" y2="102.85"/><line class="cls-8" x1="91.17" y1="82.16" x2="105.02" y2="95.95"/><g class="cls-9"><path class="cls-4" d="M99.74,42.58,126.18,69,69.65,125.55,43.21,99.11,99.74,42.58m0-2a2,2,0,0,0-1.41.59L41.8,97.69a2,2,0,0,0,0,2.83L68.24,127a2,2,0,0,0,2.83,0L127.6,70.44a2,2,0,0,0,0-2.83L101.16,41.16a2,2,0,0,0-1.41-.59Z"/></g><path class="cls-5" d="M80,3A77,77,0,1,1,3,80,77.09,77.09,0,0,1,80,3m0-3a80,80,0,1,0,80,80A80,80,0,0,0,80,0Z"/></svg>