<svg xmlns="http://www.w3.org/2000/svg" viewBox="0 0 59.33 59.32"><defs><style>.cls-1{fill:#009cde;}.cls-2{fill:#fff;}</style></defs><title>Asset 2</title><g id="Layer_2" data-name="Layer 2"><g id="Layer_1-2" data-name="Layer 1"><circle class="cls-1" cx="29.67" cy="29.67" r="23.33"/><circle class="cls-2" cx="27.07" cy="0.96" r="0.87"/><circle class="cls-2" cx="19.73" cy="2.61" r="0.87"/><circle class="cls-2" cx="13.07" cy="6.1" r="0.87"/><circle class="cls-2" cx="7.53" cy="11.2" r="0.87"/><circle class="cls-2" cx="3.52" cy="17.56" r="0.87"/><circle class="cls-2" cx="1.27" cy="24.73" r="0.87"/><circle class="cls-2" cx="0.97" cy="32.25" r="0.87"/><circle class="cls-2" cx="2.61" cy="39.6" r="0.87"/><circle class="cls-2" cx="6.11" cy="46.25" r="0.87"/><circle class="cls-2" cx="11.21" cy="51.79" r="0.87"/><circle class="cls-2" cx="17.57" cy="55.82" r="0.87"/><circle class="cls-2" cx="24.74" cy="58.06" r="0.87"/><circle class="cls-2" cx="32.26" cy="58.37" r="0.87"/><circle class="cls-2" cx="39.6" cy="56.71" r="0.87"/><circle class="cls-2" cx="46.26" cy="53.22" r="0.87"/><circle class="cls-2" cx="51.8" cy="48.12" r="0.87"/><circle class="cls-2" cx="55.83" cy="41.76" r="0.87"/><circle class="cls-2" cx="58.06" cy="34.59" r="0.87"/><circle class="cls-2" cx="58.37" cy="27.06" r="0.87"/><circle class="cls-2" cx="56.72" cy="19.72" r="0.87"/><circle class="cls-2" cx="53.22" cy="13.07" r="0.87"/><circle class="cls-2" cx="48.21" cy="7.75" r="0.87"/><circle class="cls-2" cx="41.77" cy="3.51" r="0.87"/><circle class="cls-2" cx="34.59" cy="1.26" r="0.87"/><circle class="cls-2" cx="30.88" cy="0.87" r="0.87"/><circle class="cls-2" cx="23.49" cy="1.52" r="0.87"/><circle class="cls-2" cx="16.32" cy="4.13" r="0.87"/><circle class="cls-2" cx="10.16" cy="8.44" r="0.87"/><circle class="cls-2" cx="5.35" cy="14.22" r="0.87"/><circle class="cls-2" cx="2.17" cy="21.04" r="0.87"/><circle class="cls-2" cx="0.87" cy="28.45" r="0.87"/><circle class="cls-2" cx="1.54" cy="35.95" r="0.87"/><circle class="cls-2" cx="4.13" cy="43.01" r="0.87"/><circle class="cls-2" cx="8.45" cy="49.17" r="0.87"/><circle class="cls-2" cx="14.43" cy="53.94" r="0.87"/><circle class="cls-2" cx="21.04" cy="57.16" r="0.87"/><circle class="cls-2" cx="28.45" cy="58.45" r="0.87"/><circle class="cls-2" cx="35.95" cy="57.79" r="0.87"/><circle class="cls-2" cx="43.02" cy="55.21" r="0.87"/><circle class="cls-2" cx="49.16" cy="50.88" r="0.87"/><circle class="cls-2" cx="54.17" cy="44.9" r="0.87"/><circle class="cls-2" cx="57.16" cy="38.29" r="0.87"/><circle class="cls-2" cx="58.46" cy="30.87" r="0.87"/><circle class="cls-2" cx="57.79" cy="23.39" r="0.87"/><circle class="cls-2" cx="55.21" cy="16.31" r="0.87"/><circle class="cls-2" cx="50.89" cy="10.16" r="0.87"/><circle class="cls-2" cx="45.13" cy="5.15" r="0.87"/><circle class="cls-2" cx="38.29" cy="2.17" r="0.87"/><path class="cls-2" d="M29.89,46.35a.28.28,0,0,1-.22-.1l-.57-.59c-3-3.1-11-11.35-11-17.64a11.81,11.81,0,0,1,23.61-.38V28c0,6.27-7.6,14.12-10.84,17.47l-.74.76A.29.29,0,0,1,29.89,46.35Zm0-29.5A11.17,11.17,0,0,0,18.73,28c0,6,7.86,14.14,10.81,17.2l.35.35.51-.52c3.18-3.3,10.66-11,10.66-17A11.18,11.18,0,0,0,29.89,16.85Z"/><path class="cls-2" d="M29.89,35.57A8.08,8.08,0,1,1,38,27.49h0A8.09,8.09,0,0,1,29.89,35.57Zm0-15.51a7.44,7.44,0,1,0,7.44,7.44,7.43,7.43,0,0,0-7.44-7.44Z"/></g></g></svg>