<svg id="Icons" xmlns="http://www.w3.org/2000/svg" viewBox="0 0 60 60"><defs><style>.cls-1{fill:#009cde;}.cls-2{fill:#fff;}</style></defs><title>HeroBanner-Track a Transfer</title><circle class="cls-1" cx="30" cy="29.91" r="23.59"/><path class="cls-2" d="M27.83,40.18a.52.52,0,0,1-.51-.53v-7H20.54a.53.53,0,0,1,0-1.05h7.29a.52.52,0,0,1,.51.53v7.52a.52.52,0,0,1-.51.53Z"/><path class="cls-2" d="M18.77,42a.5.5,0,0,1-.36-.15.54.54,0,0,1,0-.75l9.06-9.34a.5.5,0,0,1,.72,0,.54.54,0,0,1,0,.75l-9.06,9.34a.5.5,0,0,1-.36.15Z"/><path class="cls-2" d="M32.17,40.18a.52.52,0,0,1-.51-.53V32.13a.52.52,0,0,1,.51-.53h7.29a.53.53,0,0,1,0,1.05H32.68v7a.52.52,0,0,1-.51.53Z"/><path class="cls-2" d="M41.23,42a.5.5,0,0,1-.36-.15l-9.06-9.34a.54.54,0,0,1,0-.75.5.5,0,0,1,.72,0l9.06,9.34a.54.54,0,0,1,0,.75.5.5,0,0,1-.36.15Z"/><path class="cls-2" d="M39.46,28.21H32.17a.52.52,0,0,1-.51-.53V20.17a.51.51,0,1,1,1,0v7h6.78a.53.53,0,0,1,0,1.05Z"/><path class="cls-2" d="M32.17,28.21a.5.5,0,0,1-.36-.15.54.54,0,0,1,0-.75L40.86,18a.5.5,0,0,1,.72,0,.54.54,0,0,1,0,.75l-9.06,9.34a.5.5,0,0,1-.36.15Z"/><path class="cls-2" d="M27.83,28.21H20.54a.53.53,0,0,1,0-1.05h6.78v-7a.51.51,0,1,1,1,0v7.52a.52.52,0,0,1-.51.53Z"/><path class="cls-2" d="M27.83,28.21a.5.5,0,0,1-.36-.15l-9.06-9.34a.54.54,0,0,1,0-.75.5.5,0,0,1,.72,0l9.06,9.34a.54.54,0,0,1,0,.75.5.5,0,0,1-.36.15Z"/><circle class="cls-2" cx="27.38" cy="0.88" r="0.88" transform="translate(0.12 3.62) rotate(-7.58)"/><circle class="cls-2" cx="19.95" cy="2.55" r="0.88" transform="translate(0.55 7.86) rotate(-22.58)"/><circle class="cls-2" cx="13.22" cy="6.08" r="0.88" transform="translate(-0.97 9.32) rotate(-37.58)"/><circle class="cls-2" cx="7.62" cy="11.24" r="0.88" transform="translate(-5.94 10.46) rotate(-52.58)"/><circle class="cls-2" cx="3.55" cy="17.67" r="0.88" transform="translate(-14.13 14.21) rotate(-67.58)"/><circle class="cls-2" cx="1.29" cy="24.93" r="0.88" transform="translate(-23.6 22.98) rotate(-82.58)"/><circle class="cls-2" cx="0.98" cy="32.53" r="0.88" transform="translate(-4.28 0.41) rotate(-7.58)"/><circle class="cls-2" cx="2.64" cy="39.95" r="0.88" transform="translate(-15.14 4.08) rotate(-22.58)"/><circle class="cls-2" cx="6.18" cy="46.69" r="0.88" transform="translate(-27.19 13.45) rotate(-37.58)"/><circle class="cls-2" cx="11.33" cy="52.29" r="0.88" transform="translate(-37.08 29.51) rotate(-52.58)"/><circle class="cls-2" cx="17.76" cy="56.36" r="0.88" transform="translate(-41.11 51.28) rotate(-67.58)"/><circle class="cls-2" cx="25.02" cy="58.62" r="0.88" transform="translate(-36.34 75.86) rotate(-82.58)"/><circle class="cls-2" cx="32.62" cy="58.93" r="0.88" transform="translate(-7.49 4.82) rotate(-7.58)"/><circle class="cls-2" cx="40.05" cy="57.26" r="0.88" transform="translate(-18.92 19.76) rotate(-22.58)"/><circle class="cls-2" cx="46.78" cy="53.73" r="0.88" transform="translate(-23.06 39.68) rotate(-37.58)"/><circle class="cls-2" cx="52.38" cy="48.58" r="0.88" transform="translate(-18.03 60.65) rotate(-52.58)"/><circle class="cls-2" cx="56.45" cy="42.15" r="0.88" transform="translate(-4.04 78.25) rotate(-67.58)"/><circle class="cls-2" cx="58.71" cy="34.88" r="0.88" transform="translate(16.54 88.6) rotate(-82.58)"/><circle class="cls-2" cx="59.02" cy="27.28" r="0.88" transform="translate(-3.08 8.02) rotate(-7.58)"/><circle class="cls-2" cx="57.36" cy="19.86" r="0.88" transform="translate(-3.23 23.54) rotate(-22.58)"/><circle class="cls-2" cx="53.82" cy="13.12" r="0.88" transform="translate(3.16 35.55) rotate(-37.58)"/><circle class="cls-2" cx="48.67" cy="7.53" r="0.88" transform="matrix(0.61, -0.79, 0.79, 0.61, 13.11, 41.6)"/><circle class="cls-2" cx="42.24" cy="3.46" r="0.88" transform="translate(22.93 41.19) rotate(-67.58)"/><circle class="cls-2" cx="34.98" cy="1.19" r="0.88" transform="translate(29.28 35.72) rotate(-82.58)"/><circle class="cls-2" cx="31.23" cy="0.79" r="0.88"/><circle class="cls-2" cx="23.65" cy="1.47" r="0.88" transform="matrix(0.97, -0.26, 0.26, 0.97, 0.43, 6.17)"/><circle class="cls-2" cx="16.5" cy="4.08" r="0.88" transform="translate(0.17 8.8) rotate(-30)"/><circle class="cls-2" cx="10.28" cy="8.45" r="0.88" transform="translate(-2.97 9.74) rotate(-45)"/><circle class="cls-2" cx="5.4" cy="14.29" r="0.88" transform="translate(-9.67 11.82) rotate(-60)"/><circle class="cls-2" cx="2.19" cy="21.19" r="0.88" transform="translate(-18.84 17.82) rotate(-75)"/><circle class="cls-2" cx="0.88" cy="28.68" r="0.88"/><circle class="cls-2" cx="1.56" cy="36.26" r="0.88" transform="translate(-9.33 1.64) rotate(-15)"/><circle class="cls-2" cx="4.17" cy="43.4" r="0.88" transform="translate(-21.14 7.9) rotate(-30)"/><circle class="cls-2" cx="8.54" cy="49.63" r="0.88" transform="translate(-32.59 20.58) rotate(-45)"/><circle class="cls-2" cx="14.38" cy="54.51" r="0.88" transform="matrix(0.5, -0.87, 0.87, 0.5, -40.02, 39.71)"/><circle class="cls-2" cx="21.28" cy="57.71" r="0.88" transform="translate(-39.98 63.33) rotate(-75)"/><circle class="cls-2" cx="28.77" cy="59.02" r="0.88"/><circle class="cls-2" cx="36.35" cy="58.35" r="0.88" transform="translate(-13.86 11.4) rotate(-15)"/><circle class="cls-2" cx="43.5" cy="55.74" r="0.88" transform="translate(-22.04 29.22) rotate(-30)"/><circle class="cls-2" cx="49.72" cy="51.36" r="0.88" transform="translate(-21.76 50.2) rotate(-45)"/><circle class="cls-2" cx="54.6" cy="45.53" r="0.88" transform="matrix(0.5, -0.87, 0.87, 0.5, -12.13, 70.05)"/><circle class="cls-2" cx="57.81" cy="38.63" r="0.88" transform="translate(5.53 84.47) rotate(-75)"/><circle class="cls-2" cx="59.12" cy="31.13" r="0.88"/><circle class="cls-2" cx="58.44" cy="23.56" r="0.88" transform="translate(-4.11 15.93) rotate(-15)"/><circle class="cls-2" cx="55.83" cy="16.41" r="0.88" transform="translate(-0.73 30.11) rotate(-30)"/><circle class="cls-2" cx="51.46" cy="10.19" r="0.88" transform="translate(7.87 39.37) rotate(-45)"/><circle class="cls-2" cx="45.62" cy="5.3" r="0.88" transform="matrix(0.5, -0.87, 0.87, 0.5, 18.22, 42.16)"/><circle class="cls-2" cx="38.72" cy="2.1" r="0.88" transform="translate(26.67 38.96) rotate(-75)"/></svg>