<svg id="Icons" xmlns="http://www.w3.org/2000/svg" xmlns:xlink="http://www.w3.org/1999/xlink" viewBox="0 0 160 160"><defs><style>.cls-1{fill:none;}.cls-2{clip-path:url(#clip-path);}.cls-3{fill:#606060;}.cls-4{fill:#da291c;}</style><clipPath id="clip-path"><rect class="cls-1" x="40.08" y="46.26" width="79.85" height="37.62"/></clipPath></defs><title>How to receive money</title><g class="cls-2"><path class="cls-3" d="M119.92,34.48a11.78,11.78,0,1,1-11.78,11.78,11.78,11.78,0,0,1,11.78-11.78m0-2A13.78,13.78,0,1,0,133.7,46.26a13.8,13.8,0,0,0-13.78-13.78Z"/><path class="cls-3" d="M119.92,72.09a11.78,11.78,0,1,1-11.78,11.78,11.78,11.78,0,0,1,11.78-11.78m0-2A13.78,13.78,0,1,0,133.7,83.88a13.8,13.8,0,0,0-13.78-13.78Z"/><path class="cls-3" d="M40.08,72.09A11.78,11.78,0,1,1,28.3,83.88,11.78,11.78,0,0,1,40.08,72.09m0-2A13.78,13.78,0,1,0,53.86,83.88,13.8,13.8,0,0,0,40.08,70.09Z"/><path class="cls-3" d="M40.08,34.48A11.78,11.78,0,1,1,28.3,46.26,11.78,11.78,0,0,1,40.08,34.48m0-2A13.78,13.78,0,1,0,53.86,46.26,13.8,13.8,0,0,0,40.08,32.48Z"/></g><path class="cls-3" d="M119.92,46.26V83.88H40.08V46.26h79.85m0-2H40.08a2,2,0,0,0-2,2V83.88a2,2,0,0,0,2,2h79.85a2,2,0,0,0,2-2V46.26a2,2,0,0,0-2-2Z"/><path class="cls-4" d="M102.5,65.32A22.57,22.57,0,0,0,80,42.82h0a22.48,22.48,0,0,0-9.31,42.94V98.2H66.44a1.8,1.8,0,0,0-1.35,3l13.54,15.38a1.8,1.8,0,0,0,1.35.61h0a1.8,1.8,0,0,0,1.35-.61l13.58-15.38a1.8,1.8,0,0,0-1.35-3H89.32V85.77A22.56,22.56,0,0,0,102.5,65.32ZM78.69,67.54C76,67,71.83,65.85,71.83,61.28c0-3.31,2.05-5.57,5.63-6.33v-.73c0-2,.76-3.08,2.58-3.08h.17c1.89,0,2.58,1,2.58,3.08v.56c3.55.43,5.37,1.86,5.37,3.88A3.82,3.82,0,0,1,86,61.77a8.62,8.62,0,0,0-5.47-2.22c-1.82,0-2.65.56-2.65,1.56S79.49,62.5,81.57,63c2.82.56,7.06,1.79,7.06,6.16,0,3.48-2.05,5.73-5.87,6.46v.83c0,2-.76,3.08-2.58,3.08H80c-1.89,0-2.58-1-2.58-3.08v-.66c-3.94-.43-6.06-2-6.06-4.11,0-1.72,1.85-3.11,2-2.95A10.3,10.3,0,0,0,79.45,71c1.89,0,2.75-.53,2.75-1.56S80.65,68,78.69,67.54Zm8.83,34.26h2.06L80,112.66,70.42,101.8h2.07a1.8,1.8,0,0,0,1.8-1.8V87.05a22.27,22.27,0,0,0,5.72.77h0a22.27,22.27,0,0,0,5.72-.77V100A1.8,1.8,0,0,0,87.52,101.8Z"/><path class="cls-3" d="M80,3A77,77,0,1,1,3,80,77.09,77.09,0,0,1,80,3m0-3a80,80,0,1,0,80,80A80,80,0,0,0,80,0Z"/></svg>