<svg id="Icons" xmlns="http://www.w3.org/2000/svg" xmlns:xlink="http://www.w3.org/1999/xlink" viewBox="0 0 160 160"><defs><style>.cls-1{fill:none;}.cls-2{clip-path:url(#clip-path);}.cls-3{fill:#606060;}.cls-4{fill:#da291c;}</style><clipPath id="clip-path"><rect class="cls-1" x="40.08" y="76.22" width="79.85" height="37.62"/></clipPath></defs><title>How to send money</title><g class="cls-2"><path class="cls-3" d="M119.92,64.44a11.78,11.78,0,1,1-11.78,11.78,11.78,11.78,0,0,1,11.78-11.78m0-2A13.78,13.78,0,1,0,133.7,76.22a13.8,13.8,0,0,0-13.78-13.78Z"/><path class="cls-3" d="M119.92,102.05a11.78,11.78,0,1,1-11.78,11.78,11.78,11.78,0,0,1,11.78-11.78m0-2a13.78,13.78,0,1,0,13.78,13.78,13.8,13.8,0,0,0-13.78-13.78Z"/><path class="cls-3" d="M40.08,102.05A11.78,11.78,0,1,1,28.3,113.83a11.78,11.78,0,0,1,11.78-11.78m0-2a13.78,13.78,0,1,0,13.78,13.78,13.8,13.8,0,0,0-13.78-13.78Z"/><path class="cls-3" d="M40.08,64.44A11.78,11.78,0,1,1,28.3,76.22,11.78,11.78,0,0,1,40.08,64.44m0-2A13.78,13.78,0,1,0,53.86,76.22,13.8,13.8,0,0,0,40.08,62.44Z"/></g><path class="cls-3" d="M119.92,76.22v37.62H40.08V76.22h79.85m0-2H40.08a2,2,0,0,0-2,2v37.62a2,2,0,0,0,2,2h79.85a2,2,0,0,0,2-2V76.22a2,2,0,0,0-2-2Z"/><path class="cls-4" d="M57.8,94.68a22.57,22.57,0,0,0,22.5,22.5h0a22.48,22.48,0,0,0,9.31-42.94V61.8h4.25a1.8,1.8,0,0,0,1.35-3L81.67,43.43a1.8,1.8,0,0,0-1.35-.61h0a1.8,1.8,0,0,0-1.35.61L65.39,58.81a1.8,1.8,0,0,0,1.35,3H71V74.23A22.56,22.56,0,0,0,57.8,94.68ZM79,96.9c-2.72-.56-6.86-1.69-6.86-6.26,0-3.31,2.05-5.57,5.63-6.33v-.73c0-2,.76-3.08,2.58-3.08h.17c1.89,0,2.58,1,2.58,3.08v.56c3.55.43,5.37,1.86,5.37,3.88a3.82,3.82,0,0,1-2.12,3.11,8.62,8.62,0,0,0-5.47-2.22c-1.82,0-2.65.56-2.65,1.56s1.56,1.39,3.65,1.85c2.82.56,7.06,1.79,7.06,6.16,0,3.48-2.05,5.73-5.87,6.46v.83c0,2-.76,3.08-2.58,3.08h-.16c-1.89,0-2.58-1-2.58-3.08v-.66c-3.94-.43-6.06-2-6.06-4.11,0-1.72,1.85-3.11,2-2.95a10.3,10.3,0,0,0,6.1,2.29c1.89,0,2.75-.53,2.75-1.56S80.95,97.33,79,96.9ZM72.78,58.2H70.73l9.59-10.86L89.88,58.2H87.82A1.8,1.8,0,0,0,86,60V72.95a22.27,22.27,0,0,0-5.72-.77h0a22.27,22.27,0,0,0-5.72.77V60A1.8,1.8,0,0,0,72.78,58.2Z"/><path class="cls-3" d="M80,3A77,77,0,1,1,3,80,77.09,77.09,0,0,1,80,3m0-3a80,80,0,1,0,80,80A80,80,0,0,0,80,0Z"/></svg>